HIERARCHY
ROOT Hips
{
  OFFSET -21.7848 93.0946 1805.31
  CHANNELS 6 Xposition Yposition Zposition Zrotation Xrotation Yrotation
  JOINT Spine
  {
    OFFSET 0 8 0
    CHANNELS 6 Xposition Yposition Zposition Zrotation Xrotation Yrotation
    JOINT Spine1
    {
      OFFSET 0 8 0
      CHANNELS 6 Xposition Yposition Zposition Zrotation Xrotation Yrotation
      JOINT Spine2
      {
        OFFSET 0 8 0
        CHANNELS 6 Xposition Yposition Zposition Zrotation Xrotation Yrotation
        JOINT Spine3
        {
          OFFSET 0 8 0
          CHANNELS 6 Xposition Yposition Zposition Zrotation Xrotation Yrotation
          JOINT Neck
          {
            OFFSET 0 17 0
            CHANNELS 6 Xposition Yposition Zposition Zrotation Xrotation Yrotation
            JOINT Head
            {
              OFFSET 0 10.8 0
              CHANNELS 6 Xposition Yposition Zposition Zrotation Xrotation Yrotation
              End Site
              {
                OFFSET 0 20.25 0
              }
            }
          }
          JOINT LeftShoulder
          {
            OFFSET 5 17 0
            CHANNELS 6 Xposition Yposition Zposition Zrotation Xrotation Yrotation
            JOINT LeftShoulder2
            {
              OFFSET 6.45 0 0
              CHANNELS 6 Xposition Yposition Zposition Zrotation Xrotation Yrotation
              JOINT LeftArm
              {
                OFFSET 6.45 0 0
                CHANNELS 6 Xposition Yposition Zposition Zrotation Xrotation Yrotation
                JOINT LeftForeArm
                {
                  OFFSET 0 -32.4 -2
                  CHANNELS 6 Xposition Yposition Zposition Zrotation Xrotation Yrotation
                  JOINT LeftHand
                  {
                    OFFSET 0 -25.65 2
                    CHANNELS 6 Xposition Yposition Zposition Zrotation Xrotation Yrotation
                    JOINT LeftHandThumb1
                    {
                      OFFSET -0.5 -1.5 2.65
                      CHANNELS 6 Xposition Yposition Zposition Zrotation Xrotation Yrotation
                      JOINT LeftHandThumb2
                      {
                        OFFSET 0 -3.8 3.7
                        CHANNELS 6 Xposition Yposition Zposition Zrotation Xrotation Yrotation
                        JOINT LeftHandThumb3
                        {
                          OFFSET 0 -3 2.7
                          CHANNELS 6 Xposition Yposition Zposition Zrotation Xrotation Yrotation
                          End Site
                          {
                            OFFSET 0 -2.3 1.8
                          }
                        }
                      }
                    }
                    JOINT LeftHandIndex
                    {
                      OFFSET 0 -1.9 1.6
                      CHANNELS 6 Xposition Yposition Zposition Zrotation Xrotation Yrotation
                      JOINT LeftHandIndex1
                      {
                        OFFSET 0 -8.3 1.9
                        CHANNELS 6 Xposition Yposition Zposition Zrotation Xrotation Yrotation
                        JOINT LeftHandIndex2
                        {
                          OFFSET 0 -4.5 0
                          CHANNELS 6 Xposition Yposition Zposition Zrotation Xrotation Yrotation
                          JOINT LeftHandIndex3
                          {
                            OFFSET 0 -3.4 0
                            CHANNELS 6 Xposition Yposition Zposition Zrotation Xrotation Yrotation
                            End Site
                            {
                              OFFSET 0 -2.6 0
                            }
                          }
                        }
                      }
                    }
                    JOINT LeftHandMiddle
                    {
                      OFFSET -0.25 -2.2 0.4
                      CHANNELS 6 Xposition Yposition Zposition Zrotation Xrotation Yrotation
                      JOINT LeftHandMiddle1
                      {
                        OFFSET 0 -8.3 1
                        CHANNELS 6 Xposition Yposition Zposition Zrotation Xrotation Yrotation
                        JOINT LeftHandMiddle2
                        {
                          OFFSET 0 -4.65 0
                          CHANNELS 6 Xposition Yposition Zposition Zrotation Xrotation Yrotation
                          JOINT LeftHandMiddle3
                          {
                            OFFSET 0 -3.3 0
                            CHANNELS 6 Xposition Yposition Zposition Zrotation Xrotation Yrotation
                            End Site
                            {
                              OFFSET 0 -2.7 0
                            }
                          }
                        }
                      }
                    }
                    JOINT LeftHandRing
                    {
                      OFFSET -0.5 -2.15 -0.8
                      CHANNELS 6 Xposition Yposition Zposition Zrotation Xrotation Yrotation
                      JOINT LeftHandRing1
                      {
                        OFFSET 0 -7.75 -0.2
                        CHANNELS 6 Xposition Yposition Zposition Zrotation Xrotation Yrotation
                        JOINT LeftHandRing2
                        {
                          OFFSET 0 -3.8 0
                          CHANNELS 6 Xposition Yposition Zposition Zrotation Xrotation Yrotation
                          JOINT LeftHandRing3
                          {
                            OFFSET 0 -3.4 0
                            CHANNELS 6 Xposition Yposition Zposition Zrotation Xrotation Yrotation
                            End Site
                            {
                              OFFSET 0 -2.6 0
                            }
                          }
                        }
                      }
                    }
                    JOINT LeftHandPinky
                    {
                      OFFSET -0.75 -1.75 -1.85
                      CHANNELS 6 Xposition Yposition Zposition Zrotation Xrotation Yrotation
                      JOINT LeftHandPinky1
                      {
                        OFFSET 0 -7.15 -1
                        CHANNELS 6 Xposition Yposition Zposition Zrotation Xrotation Yrotation
                        JOINT LeftHandPinky2
                        {
                          OFFSET 0 -3 0
                          CHANNELS 6 Xposition Yposition Zposition Zrotation Xrotation Yrotation
                          JOINT LeftHandPinky3
                          {
                            OFFSET 0 -2.35 0
                            CHANNELS 6 Xposition Yposition Zposition Zrotation Xrotation Yrotation
                            End Site
                            {
                              OFFSET 0 -2.1 0
                            }
                          }
                        }
                      }
                    }
                  }
                }
              }
            }
          }
          JOINT RightShoulder
          {
            OFFSET -5 17 0
            CHANNELS 6 Xposition Yposition Zposition Zrotation Xrotation Yrotation
            JOINT RightShoulder2
            {
              OFFSET -6.45 0 0
              CHANNELS 6 Xposition Yposition Zposition Zrotation Xrotation Yrotation
              JOINT RightArm
              {
                OFFSET -6.45 0 0
                CHANNELS 6 Xposition Yposition Zposition Zrotation Xrotation Yrotation
                JOINT RightForeArm
                {
                  OFFSET 0 -32.4 -2
                  CHANNELS 6 Xposition Yposition Zposition Zrotation Xrotation Yrotation
                  JOINT RightHand
                  {
                    OFFSET 0 -25.65 2
                    CHANNELS 6 Xposition Yposition Zposition Zrotation Xrotation Yrotation
                    JOINT RightHandThumb1
                    {
                      OFFSET 0.5 -1.5 2.65
                      CHANNELS 6 Xposition Yposition Zposition Zrotation Xrotation Yrotation
                      JOINT RightHandThumb2
                      {
                        OFFSET 0 -3.8 3.7
                        CHANNELS 6 Xposition Yposition Zposition Zrotation Xrotation Yrotation
                        JOINT RightHandThumb3
                        {
                          OFFSET 0 -3 2.7
                          CHANNELS 6 Xposition Yposition Zposition Zrotation Xrotation Yrotation
                          End Site
                          {
                            OFFSET 0 -2.3 1.8
                          }
                        }
                      }
                    }
                    JOINT RightHandIndex
                    {
                      OFFSET 0 -1.9 1.6
                      CHANNELS 6 Xposition Yposition Zposition Zrotation Xrotation Yrotation
                      JOINT RightHandIndex1
                      {
                        OFFSET 0 -8.3 1.9
                        CHANNELS 6 Xposition Yposition Zposition Zrotation Xrotation Yrotation
                        JOINT RightHandIndex2
                        {
                          OFFSET 0 -4.5 0
                          CHANNELS 6 Xposition Yposition Zposition Zrotation Xrotation Yrotation
                          JOINT RightHandIndex3
                          {
                            OFFSET 0 -3.4 0
                            CHANNELS 6 Xposition Yposition Zposition Zrotation Xrotation Yrotation
                            End Site
                            {
                              OFFSET 0 -2.6 0
                            }
                          }
                        }
                      }
                    }
                    JOINT RightHandMiddle
                    {
                      OFFSET 0.25 -2.2 0.4
                      CHANNELS 6 Xposition Yposition Zposition Zrotation Xrotation Yrotation
                      JOINT RightHandMiddle1
                      {
                        OFFSET 0 -8.3 1
                        CHANNELS 6 Xposition Yposition Zposition Zrotation Xrotation Yrotation
                        JOINT RightHandMiddle2
                        {
                          OFFSET 0 -4.65 0
                          CHANNELS 6 Xposition Yposition Zposition Zrotation Xrotation Yrotation
                          JOINT RightHandMiddle3
                          {
                            OFFSET 0 -3.3 0
                            CHANNELS 6 Xposition Yposition Zposition Zrotation Xrotation Yrotation
                            End Site
                            {
                              OFFSET 0 -2.7 0
                            }
                          }
                        }
                      }
                    }
                    JOINT RightHandRing
                    {
                      OFFSET 0.5 -2.15 -0.8
                      CHANNELS 6 Xposition Yposition Zposition Zrotation Xrotation Yrotation
                      JOINT RightHandRing1
                      {
                        OFFSET 0 -7.75 -0.2
                        CHANNELS 6 Xposition Yposition Zposition Zrotation Xrotation Yrotation
                        JOINT RightHandRing2
                        {
                          OFFSET 0 -3.8 0
                          CHANNELS 6 Xposition Yposition Zposition Zrotation Xrotation Yrotation
                          JOINT RightHandRing3
                          {
                            OFFSET 0 -3.4 0
                            CHANNELS 6 Xposition Yposition Zposition Zrotation Xrotation Yrotation
                            End Site
                            {
                              OFFSET 0 -2.6 0
                            }
                          }
                        }
                      }
                    }
                    JOINT RightHandPinky
                    {
                      OFFSET 0.75 -1.75 -1.85
                      CHANNELS 6 Xposition Yposition Zposition Zrotation Xrotation Yrotation
                      JOINT RightHandPinky1
                      {
                        OFFSET 0 -7.15 -1
                        CHANNELS 6 Xposition Yposition Zposition Zrotation Xrotation Yrotation
                        JOINT RightHandPinky2
                        {
                          OFFSET 0 -3 0
                          CHANNELS 6 Xposition Yposition Zposition Zrotation Xrotation Yrotation
                          JOINT RightHandPinky3
                          {
                            OFFSET 0 -2.35 0
                            CHANNELS 6 Xposition Yposition Zposition Zrotation Xrotation Yrotation
                            End Site
                            {
                              OFFSET 0 -2.1 0
                            }
                          }
                        }
                      }
                    }
                  }
                }
              }
            }
          }
        }
      }
    }
  }
  JOINT LeftUpLeg
  {
    OFFSET 8 0 0
    CHANNELS 6 Xposition Yposition Zposition Zrotation Xrotation Yrotation
    JOINT LeftLeg
    {
      OFFSET 0 -45 -1
      CHANNELS 6 Xposition Yposition Zposition Zrotation Xrotation Yrotation
      JOINT LeftFoot
      {
        OFFSET 0 -41 -2
        CHANNELS 6 Xposition Yposition Zposition Zrotation Xrotation Yrotation
        JOINT LeftToeBase
        {
          OFFSET 0 -7.5 12.5
          CHANNELS 6 Xposition Yposition Zposition Zrotation Xrotation Yrotation
          JOINT LeftFootToe
          {
            OFFSET 0 0 4
            CHANNELS 6 Xposition Yposition Zposition Zrotation Xrotation Yrotation
            End Site
            {
              OFFSET 0 0 0
            }
          }
        }
      }
    }
  }
  JOINT RightUpLeg
  {
    OFFSET -8 0 0
    CHANNELS 6 Xposition Yposition Zposition Zrotation Xrotation Yrotation
    JOINT RightLeg
    {
      OFFSET 0 -45 -1
      CHANNELS 6 Xposition Yposition Zposition Zrotation Xrotation Yrotation
      JOINT RightFoot
      {
        OFFSET 0 -41 -2
        CHANNELS 6 Xposition Yposition Zposition Zrotation Xrotation Yrotation
        JOINT RightToeBase
        {
          OFFSET 0 -7.5 12.5
          CHANNELS 6 Xposition Yposition Zposition Zrotation Xrotation Yrotation
          JOINT RightFootToe
          {
            OFFSET 0 0 4
            CHANNELS 6 Xposition Yposition Zposition Zrotation Xrotation Yrotation
            End Site
            {
              OFFSET 0 0 0
            }
          }
        }
      }
    }
  }
}
MOTION
Frames:	3
Frame Time:	0.0111111
-302.268 92.9478 809.044 -2.60864 1.29996 155.717 0 8 -1.13687e-13 -5.83302 -0.584765 -5.87785 2.84217e-14 8 1.13687e-13 1.38501 0.513294 0.64094 0 8 -1.13687e-13 0.693257 0.254725 0.322043 -5.68434e-14 8 1.13687e-13 0.693192 0.254701 0.322012 5.68434e-14 17 0 -1.2912 1.50422 -4.31738 -5.68434e-14 10.8 0 2.0771 -0.140576 -10.0988 5 17 -1.13687e-13 -0.0428903 -1.82446 -3.67102 6.45 0 1.13687e-13 -0.781119 -1.06424 0.0267627 6.45 -2.84217e-14 0 32.6356 -16.2612 2.48055 0 -32.4 -2 -92.0976 -45.2718 -85.5902 0 -25.65 2 14.2092 -24.1185 -17.699 -0.5 -1.5 2.65 -0.585205 22.9627 -42.2665 0 -3.8 3.7 -1.52782 3.19623 -0.137812 2.84217e-14 -3 2.7 -0.153435 -7.54206 0.274476 0 -1.9 1.6 -3.97569e-15 0 6.36111e-15 -5.68434e-14 -8.3 1.9 -29.7179 12.9621 4.05982 5.68434e-14 -4.5 0 -2.04384e-10 -1.35726e-05 -0.000862798 5.68434e-14 -3.4 0 -2.03112e-10 -1.34529e-05 -0.000865048 -0.25 -2.2 0.4 -3.97569e-15 0 6.36111e-15 2.84217e-14 -8.3 1 -24.1419 9.17325 2.63 0 -4.65 0 7.12748e-06 -6.58502e-06 9.10137e-06 5.68434e-14 -3.3 0 7.12677e-06 -6.52752e-06 8.91081e-06 -0.5 -2.15 -0.8 -3.97569e-15 0 6.36111e-15 0 -7.75 -0.2 -27.5983 12.0054 4.00451 5.68434e-14 -3.8 0 -10.418 0.0165434 -0.00641562 -5.68434e-14 -3.4 0 -9.11498 0.0123195 -0.00361933 -0.75 -1.75 -1.85 -3.97569e-15 0 6.36111e-15 -2.84217e-14 -7.15 -1 -27.601 18.9435 6.18251 -5.68434e-14 -3 0 9.04469e-05 -1.20183e-06 -9.44983e-07 0 -2.35 1.13687e-13 9.05685e-05 -1.19623e-06 -9.39371e-07 -5 17 0 1.28648 -0.773399 -0.336206 -6.45 0 0 -2.32617 0.862765 -3.2784 -6.45 0 0 -38.3582 -34.7115 0.335008 5.68434e-14 -32.4 -2 130.242 -61.4643 118.526 0 -25.65 2 -12.4645 16.4037 7.61531 0.5 -1.5 2.65 -0.189198 2.51527 6.34213 1.42109e-14 -3.8 3.7 0.156541 40.9871 -0.0632961 2.84217e-14 -3 2.7 0.0283693 66.9094 -0.0296578 0 -1.9 1.6 -1.59028e-15 0 9.14409e-15 -2.84217e-14 -8.3 1.9 1.603 -9.0657 0.0900935 1.42109e-14 -4.5 0 2.20586e-09 0.000391389 -0.000322918 1.42109e-14 -3.4 0 2.20083e-09 0.000367522 -0.000343103 0.25 -2.2 0.4 -1.59028e-15 0 9.14409e-15 -1.42109e-14 -8.3 1 0.921064 -3.60072 0.00762951 -1.42109e-14 -4.65 1.13687e-13 76.357 0.00535343 0.00374561 1.13687e-13 -3.3 0 60.1176 0.00358188 0.000488688 0.5 -2.15 -0.8 -1.59028e-15 0 9.14409e-15 0 -7.75 -0.2 0.855386 -0.898598 -0.0165052 -4.26326e-14 -3.8 0 45.126 0.00293231 0.00388791 0 -3.4 0 31.2806 0.00776429 -0.0013612 0.75 -1.75 -1.85 -1.59028e-15 0 9.14409e-15 0 -7.15 -1 1.07452 -2.23039 0.0094588 -1.42109e-14 -3 0 2.96877 0.00366029 0.0053725 1.42109e-14 -2.35 5.68434e-14 2.84007 0.000217682 0.00931779 8 -1.42109e-14 -1.13687e-13 -5.19883 -1.48947 -8.42174 5.68434e-14 -45 -1 0.00430223 4.00581 0.144694 0 -41 -2 2.02241 -2.09141 1.0612 -5.68434e-14 -7.5 12.5 9.70628e-19 2.09846e-05 -0 -2.84217e-14 1.73472e-18 4 -2.47065 -3.85518 46.8859 -8 0 0 -10.7334 -8.50587 -8.83148 -8.52651e-14 -45 -1 0.0224875 7.01304 -0.460081 2.84217e-14 -41 -2 6.33588 2.51143 9.26237 -2.84217e-14 -7.5 12.5 -2.48481e-17 2.48481e-17 6.36111e-15 0 0 4 -0.920489 -1.6736 11.2317 
-302.169 92.9791 809.051 -2.42515 1.2016 156.039 0 8 0 -5.51884 -0.716496 -5.75096 0 8 0 1.33599 0.563248 0.685976 0 8 -1.13687e-13 0.668869 0.279642 0.34465 0 8 0 0.668808 0.279617 0.344613 -5.68434e-14 17 0 -1.18004 1.03519 -4.09929 5.68434e-14 10.8 0 1.91508 -0.648724 -9.58086 5 17 0 0.0485097 -2.14126 -3.51715 6.45 -2.84217e-14 0 -0.806858 -1.06471 0.0420406 6.45 0 0 32.2538 -16.4838 2.6563 -5.68434e-14 -32.4 -2 -91.1534 -45.2061 -84.3552 0 -25.65 2 14.1433 -23.8954 -17.663 -0.5 -1.5 2.65 -0.146873 22.5115 -42.7168 0 -3.8 3.7 -1.53384 3.18833 -0.138802 2.84217e-14 -3 2.7 -0.151894 -7.82526 0.274589 0 -1.9 1.6 2.38542e-15 1.59028e-15 6.36111e-15 5.68434e-14 -8.3 1.9 -30.0017 13.3349 4.20968 -5.68434e-14 -4.5 -1.13687e-13 -3.96174e-10 -2.72581e-05 -0.000832751 0 -3.4 1.13687e-13 -3.9403e-10 -2.70204e-05 -0.000835534 -0.25 -2.2 0.4 2.38542e-15 1.59028e-15 6.36111e-15 0 -8.3 1 -24.2308 9.20926 2.64441 -5.68434e-14 -4.65 1.13687e-13 1.42311e-05 -9.86097e-06 1.36292e-05 0 -3.3 -1.13687e-13 1.42296e-05 -9.77486e-06 1.33438e-05 -0.5 -2.15 -0.8 2.38542e-15 1.59028e-15 6.36111e-15 -5.68434e-14 -7.75 -0.2 -27.371 11.6576 3.86349 5.68434e-14 -3.8 -1.13687e-13 -9.93524 0.0163981 -0.0069479 0 -3.4 0 -8.7383 0.0118027 -0.00373628 -0.75 -1.75 -1.85 2.38542e-15 1.59028e-15 6.36111e-15 0 -7.15 -1 -27.1561 18.6136 5.97043 0 -3 -1.13687e-13 9.39074e-05 -1.29881e-06 -1.02124e-06 0 -2.35 1.13687e-13 9.40337e-05 -1.29276e-06 -1.01517e-06 -5 17 0 1.26041 -0.97588 -0.12581 -6.45 0 0 -2.31406 0.854186 -3.22165 -6.45 2.84217e-14 0 -38.5931 -34.8814 0.432526 2.84217e-14 -32.4 -2 130.342 -61.6548 118.544 -2.84217e-14 -25.65 2 -12.5202 16.3544 7.86237 0.5 -1.5 2.65 -0.0152811 2.6301 6.33843 0 -3.8 3.7 0.162643 40.9565 -0.0681742 0 -3 2.7 0.0290292 67.0254 -0.030255 -1.42109e-14 -1.9 1.6 -1.59028e-15 -1.59028e-15 -3.97569e-16 4.26326e-14 -8.3 1.9 1.685 -8.98776 0.0952102 0 -4.5 1.13687e-13 2.23469e-09 0.000393901 -0.000325052 2.84217e-14 -3.4 0 2.22947e-09 0.000369881 -0.000345353 0.25 -2.2 0.4 -1.59028e-15 -1.59028e-15 -3.97569e-16 2.84217e-14 -8.3 1 0.94935 -3.4163 0.00745476 5.68434e-14 -4.65 0 76.4038 0.00533283 0.00376379 0 -3.3 0 60.1851 0.00355364 0.00054499 0.5 -2.15 -0.8 -1.59028e-15 -1.59028e-15 -3.97569e-16 -1.42109e-14 -7.75 -0.2 0.84534 -0.746928 -0.0167417 0 -3.8 0 45.3274 0.0028624 0.00386599 5.68434e-14 -3.4 -1.13687e-13 31.4085 0.00773486 -0.00135992 0.75 -1.75 -1.85 -1.59028e-15 -1.59028e-15 -3.97569e-16 -2.84217e-14 -7.15 -1 1.0285 -2.07505 0.00967591 0 -3 -1.13687e-13 3.34774 0.00365783 0.00561383 1.42109e-14 -2.35 0 3.18904 0.000218695 0.00943915 8 0 0 -4.91494 -1.49923 -8.39222 0 -45 -1 0.0038179 4.0321 0.151003 0 -41 -2 1.94724 -2.11909 0.756209 -5.68434e-14 -7.5 12.5 1.98971e-19 2.18231e-05 -1.27222e-14 -2.84217e-14 -1.73472e-18 4 -2.43225 -3.80465 46.898 -8 0 0 -10.414 -8.01516 -8.82655 0 -45 -1 0.0167794 6.18461 -0.467782 5.68434e-14 -41 -2 6.31482 2.85343 9.02161 0 -7.5 12.5 1.2424e-17 2.48481e-17 6.36111e-15 2.84217e-14 -4.44089e-16 4 -0.903321 -1.81265 11.2634 
-302.063 93.0096 809.07 -2.24982 1.10844 156.359 0 8 0 -5.21096 -0.840702 -5.60798 0 8 0 1.28424 0.61035 0.739989 0 8 0 0.64314 0.303123 0.371721 -5.68434e-14 8 0 0.643084 0.303096 0.371688 -5.68434e-14 17 -1.13687e-13 -1.06673 0.533281 -3.86827 2.84217e-14 10.8 0 1.739 -1.2047 -9.03393 5 17 0 0.133521 -2.46153 -3.39333 6.45 -2.84217e-14 0 -0.831406 -1.06567 0.0572035 6.45 0 -2.27374e-13 31.9357 -16.6776 2.86529 0 -32.4 -2 -90.2761 -45.0832 -83.1602 0 -25.65 2 14.1759 -23.5811 -17.5267 -0.5 -1.5 2.65 0.290517 21.8641 -43.1499 0 -3.8 3.7 -1.54534 3.1658 -0.139608 0 -3 2.7 -0.149757 -8.22666 0.274823 0 -1.9 1.6 1.59028e-15 3.18055e-15 9.54166e-15 2.84217e-14 -8.3 1.9 -30.3373 13.6786 4.36693 5.68434e-14 -4.5 1.13687e-13 -5.707e-10 -4.07205e-05 -0.000803005 -5.68434e-14 -3.4 0 -5.68077e-10 -4.03669e-05 -0.000806313 -0.25 -2.2 0.4 1.59028e-15 3.18055e-15 9.54166e-15 0 -8.3 1 -24.3483 9.21186 2.6566 0 -4.65 0 2.13108e-05 -1.31259e-05 1.81417e-05 5.68434e-14 -3.3 0 2.13086e-05 -1.30113e-05 1.77619e-05 -0.5 -2.15 -0.8 1.59028e-15 3.18055e-15 9.54166e-15 0 -7.75 -0.2 -27.1544 11.2815 3.72079 -5.68434e-14 -3.8 0 -9.38513 0.0161588 -0.00746265 0 -3.4 0 -8.30496 0.0112927 -0.00386735 -0.75 -1.75 -1.85 1.59028e-15 3.18055e-15 9.54166e-15 0 -7.15 -1 -26.6944 18.2645 5.75601 -5.68434e-14 -3 0 9.7356e-05 -1.39947e-06 -1.10038e-06 0 -2.35 1.13687e-13 9.74869e-05 -1.39295e-06 -1.09385e-06 -5 17 0 1.22451 -1.18575 0.0599555 -6.45 2.84217e-14 0 -2.30313 0.85262 -3.18236 -6.45 0 -1.13687e-13 -38.7862 -35.0441 0.511679 0 -32.4 -2 130.374 -61.7645 118.488 0 -25.65 2 -12.5722 16.3848 8.13267 0.5 -1.5 2.65 0.156667 2.74799 6.31964 0 -3.8 3.7 0.170977 40.877 -0.0762175 1.42109e-14 -3 2.7 0.0297176 67.145 -0.0308462 -1.42109e-14 -1.9 1.6 -1.59028e-15 0 3.18055e-15 -4.26326e-14 -8.3 1.9 1.79434 -8.9044 0.102094 0 -4.5 0 2.26373e-09 0.000396415 -0.000327188 1.42109e-14 -3.4 1.13687e-13 2.25834e-09 0.000372242 -0.000347605 0.25 -2.2 0.4 -1.59028e-15 0 3.18055e-15 -2.84217e-14 -8.3 1 0.994337 -3.2533 0.00730172 -2.84217e-14 -4.65 0 76.4274 0.00531214 0.00378167 0 -3.3 -5.68434e-14 60.2192 0.00352552 0.00060076 0.5 -2.15 -0.8 -1.59028e-15 0 3.18055e-15 -1.42109e-14 -7.75 -0.2 0.85144 -0.585704 -0.0169851 0 -3.8 0 45.5253 0.00279512 0.00384418 0 -3.4 0 31.5347 0.00770537 -0.00135889 0.75 -1.75 -1.85 -1.59028e-15 0 3.18055e-15 2.84217e-14 -7.15 -1 1.00463 -1.89354 0.00989496 -1.42109e-14 -3 5.68434e-14 3.72777 0.00365489 0.00585833 -1.42109e-14 -2.35 0 3.53548 0.000219702 0.00944328 8 -1.42109e-14 -1.13687e-13 -4.63176 -1.51467 -8.32832 0 -45 -1 0.00320782 4.0552 0.159428 -5.68434e-14 -41 -2 1.86252 -2.14126 0.432044 0 -7.5 12.5 -4.81538e-19 2.26751e-05 -9.54166e-15 0 -1.73472e-18 4 -2.39393 -3.74464 46.8917 -8 -1.42109e-14 0 -10.1054 -7.54649 -8.87181 2.84217e-14 -45 -1 0.010592 5.39724 -0.469212 0 -41 -2 6.2822 3.18046 8.77898 8.52651e-14 -7.5 12.5 -3.72721e-17 2.48481e-17 -3.18055e-15 -2.84217e-14 0 4 -0.889546 -1.93367 11.2847 
